Simulation
nRows=20
nColumns=15
endheader
time  TH_x TH_y TH_z SC_y  SC_z  SC_x  AC_y  AC_z  AC_x  GH_y  GH_z  GH_yy  EL_x  PS_y
2.8725  0.000000  0.000000  0.000000  -46.41338014989009  4.705805024840904  6.058930244436427  47.8950139299457  2.2310768506384755  -0.030900263943835434  29.919318140983105  3.024952394951735  -16.616825342903372  14.025687597391274  120.000000
2.9108  0.000000  0.000000  0.000000  -45.798914388313676  4.489778701076514  5.6004007671027605  48.09376013495922  2.4420662690308466  0.31886243155179167  35.9000241208563  2.542948433727118  -21.293399859060397  14.257551597445705  120.000000
2.9491  0.000000  0.000000  0.000000  -45.26248407659248  4.2728625844642325  5.135951269846975  48.289407556199684  2.6739556926501193  0.6599476672913065  44.03682877531861  2.233185873006182  -28.29534390930332  14.534020213179346  120.000000
2.9874  0.000000  0.000000  0.000000  -44.8041889089756  4.0586752833300785  4.674159493839434  48.469941124013246  2.91717039632655  0.9798383629947253  53.44250038751475  2.0904638744917725  -36.74094892389315  14.842374982734547  120.000000
3.0257  0.000000  0.000000  0.000000  -44.41760772170623  3.852693189190637  4.221945270100549  48.625675890099416  3.1636177989436076  1.2704384251213878  62.48836389784077  2.092750990447505  -44.996820225404136  15.168910988442578  120.000000
3.064  0.000000  0.000000  0.000000  -44.09333993881488  3.6610356532034616  3.7848856290197093  48.749108695927724  3.406754269567591  1.5273669860114911  69.8272569867279  2.2026352127352227  -51.70357473260758  15.500276829042463  120.000000
3.1023  0.000000  0.000000  0.000000  -43.82151023691592  3.4894669920902377  3.3676551138143367  48.83494297087551  3.6412709866601  1.7491776159280938  75.01796251756517  2.3804552061523565  -56.402586247588474  15.825030031498533  120.000000
3.1406  0.000000  0.000000  0.000000  -43.593031445026234  3.3425920500129753  2.972772195945642  48.880976371128966  3.8636268752847824  1.9369810910652103  78.26516416492261  2.5948253360494626  -59.27793692379514  16.13488302079771  120.000000
3.1789  0.000000  0.000000  0.000000  -43.399405587287724  3.2227689246956324  2.5973420456017173  48.88806805553402  4.07457367974425  2.0961030359673187  79.97124603006537  2.8242195757140256  -60.709593943034136  16.425615519004495  120.000000
3.2172  0.000000  0.000000  0.000000  -43.23249952378987  3.128352141926784  2.236148535593087  48.85972863251753  4.277673743439808  2.2339908828565362  80.5035968558424  3.054376337340031  -61.04202215061013  16.697209379079613  120.000000
3.2555  0.000000  0.000000  0.000000  -43.08431411628206  3.0540426147192394  1.8862885099154694  48.801829953670854  4.4753256998100115  2.356212466935884  80.14467649390978  3.275718124612268  -60.53583305616843  16.952209770532136  120.000000
3.2938  0.000000  0.000000  0.000000  -42.9472385613294  2.9940971719269505  1.545819009583549  48.72229352209394  4.668376666522768  2.46658497212093  79.11753788090097  3.482402623748935  -59.394137646221296  17.194758470517108  120.000000
3.3321  0.000000  0.000000  0.000000  -42.81438200427846  2.943480637822553  1.2133606461122142  48.62969704519817  4.856128308349987  2.5681503764733824  77.61189986399096  3.67200439925431  -57.789370360231864  17.429458968566927  120.000000
3.3704  0.000000  0.000000  0.000000  -42.680284400919376  2.896808611154325  0.8885824144274683  48.53148697495973  5.0370922103138955  2.663641060040043  75.79705102617176  3.8452592410515773  -55.87741229096207  17.66023210568868  120.000000
3.4087  0.000000  0.000000  0.000000  -42.54115888961098  2.848697699171553  0.572537841863996  48.434161121067305  5.20900455211988  2.75529129253179  73.8285927950446  4.00591021834969  -53.804775125696935  17.890166685791442  120.000000
3.447  0.000000  0.000000  0.000000  -42.39534145319389  2.795703292977131  0.2672662391136821  48.3433871670384  5.368447769844598  2.8456548757328837  71.86165384465349  4.160500866863826  -51.72148855845609  18.122030778597594  120.000000
3.4853  0.000000  0.000000  0.000000  -42.243384502350196  2.737029173086557  -0.02517242298699783  48.26266985016144  5.512221446884713  2.9372759877729058  70.03556837025582  4.315926458927648  -49.76512169158358  18.358086542076478  120.000000
3.5236  0.000000  0.000000  0.000000  -42.08758002506786  2.6734325105070944  -0.3035922405774309  48.193157397474906  5.6394097357585355  3.0303138439756507  68.43430365447256  4.47681518987131  -48.020670863869356  18.599047975453434  120.000000
3.5619  0.000000  0.000000  0.000000  -41.93107242184499  2.607148863740987  -0.5678258237777073  48.13410835944194  5.751181804905498  3.122747214596054  67.08334727806555  4.645022872538153  -46.51623179957065  18.844223163408333  120.000000
3.6002  0.000000  0.000000  0.000000  -41.7771770963776  2.54073314024188  -0.8183755430224676  48.083150864377686  5.849633756742675  3.2121198117477334  65.96387497711204  4.8201140011952415  -45.23613372898713  19.092263564607762  120.000000
